<svg width="400" height="400" viewBox="0 0 105.833 105.833" xmlns="http://www.w3.org/2000/svg"><defs><path id="b" d="M189.186 132.851h36.156v45.405h-36.156z"/><path id="a" d="M272.428 134.532H325.4v37.837h-52.972z"/></defs><rect style="fill:#1a1a1a;stroke-width:.265737" width="84.667" height="79.337" x="10.583" y="23.813" ry="0"/><path style="fill:#e3dbdb;stroke-width:.96589" d="M11.906 39.822h82.021v61.624H11.906z"/><path style="fill:#a05a2c;stroke-width:.194682" d="M10.583 30.427H31.75v2.117H10.583zM74.083 30.427H95.25v2.117H74.083z"/><path style="fill:#a05a2c;stroke-width:.096051" d="M30.692 23.813h2.117v8.009h-2.117zM73.025 23.813h2.117v8.009h-2.117z"/><circle style="fill:#fff;stroke-width:.0850464" cx="31.75" cy="31.75" r="2.646"/><circle style="fill:#fff;stroke-width:.0850464" cx="74.083" cy="31.75" r="2.646"/><rect style="fill:#a05a2c;stroke-width:.161537" width="2.858" height="23.444" x="34.944" y="-42.776" ry="0" transform="matrix(.3804 .92483 -.89817 .43964 0 0)"/><circle style="fill:#a05a2c;stroke-width:.393337" cx="52.917" cy="13.537" r="3.969"/><path style="fill:#a05a2c;stroke-width:.252002" transform="rotate(64.84)" d="M23.566-43.013H35.05v2.674H23.566z"/><rect style="fill:#a05a2c;stroke-width:.161537" width="2.858" height="23.444" x="-11.708" y="55.295" ry="0" transform="matrix(-.3804 .92483 .89817 .43964 0 0)"/><path style="fill:#a05a2c;stroke-width:.252002" transform="scale(-1 1) rotate(64.84)" d="M-24.303 52.425h11.484v2.674h-11.484z"/><path style="fill:#1a1a1a;stroke-width:.297955" d="M15.875 43.656h74.083v55.563H15.875z"/><path style="fill:#e3dbdb;stroke-width:.835315" d="M17.198 44.979h71.438v52.917H17.198z"/><path style="fill:#1a1a1a;stroke-width:.528748" d="M18.521 46.302h68.792v50.271H18.521z"/><path style="fill:#e3dbdb;stroke-width:.686549" d="M22.225 50.834h61.383v41.602H22.225z"/></svg>